<svg xmlns="http://www.w3.org/2000/svg" xmlns:xlink="http://www.w3.org/1999/xlink" enable-background="new 0 0 192 192" height="192" viewBox="0 0 192 192" width="192"><rect display="none" fill="none" height="192" width="192"/><symbol id="material_x5F_product_x5F_standard_x5F_icon_x5F_keylines_00000129188083243985861370000015474611901076187825_" viewBox="-96 -96 192 192"><g opacity=".4"><defs><path d="M-96 96V-96H96V96H-96z" id="SVGID_1_" opacity=".4"/></defs><clipPath id="SVGID_00000150798119436385733150000000010681234181112247_"><use overflow="visible" xlink:href="#SVGID_1_"/></clipPath><g clip-path="url(#SVGID_00000150798119436385733150000000010681234181112247_)"><g><path d="M95.75 95.75v-191.5h-191.5v191.5h191.5M96 96H-96V-96H96V96z"/></g><circle fill="none" r="64" stroke="#000000" stroke-miterlimit="10" stroke-width=".25"/></g><circle clip-path="url(#SVGID_00000150798119436385733150000000010681234181112247_)" fill="none" r="88" stroke="#000000" stroke-miterlimit="10" stroke-width=".25"/><path clip-path="url(#SVGID_00000150798119436385733150000000010681234181112247_)" d="M64 76H-64c-6.6 0-12-5.4-12-12V-64c0-6.6 5.4-12 12-12H64c6.6 0 12 5.4 12 12V64c0 6.6-5.4 12-12 12z" fill="none" stroke="#000000" stroke-miterlimit="10" stroke-width=".25"/><path clip-path="url(#SVGID_00000150798119436385733150000000010681234181112247_)" d="M52 88H-52c-6.6 0-12-5.4-12-12V-76c0-6.6 5.4-12 12-12H52c6.6 0 12 5.4 12 12V76c0 6.6-5.4 12-12 12z" fill="none" stroke="#000000" stroke-miterlimit="10" stroke-width=".25"/><path clip-path="url(#SVGID_00000150798119436385733150000000010681234181112247_)" d="M76 64H-76c-6.6 0-12-5.4-12-12V-52c0-6.6 5.4-12 12-12H76c6.6 0 12 5.4 12 12V52c0 6.6-5.4 12-12 12z" fill="none" stroke="#000000" stroke-miterlimit="10" stroke-width=".25"/></g></symbol><g/><g display="none"><use height="192" overflow="visible" transform="matrix(1 0 0 -1 96 96)" width="192" x="-96" xlink:href="#material_x5F_product_x5F_standard_x5F_icon_x5F_keylines_00000129188083243985861370000015474611901076187825_" y="-96"/></g><g><g><circle cx="144.07" cy="144" fill="#34A853" r="16"/><circle cx="96.07" cy="104" fill="#4285F4" r="24"/><path d="M24 135.2c0 18.11 14.69 32.8 32.8 32.8H96v-16l-40.1-.1c-8.8 0-15.9-8.19-15.9-17.9v-18H24v19.2z" fill="#EA4335"/><path d="M168 72.8c0-18.11-14.69-32.8-32.8-32.8H116l20 16c8.8 0 16 8.29 16 18v30h16V72.8z" fill="#FBBC04"/><path d="M112 24H80L68 40H56.8C38.69 40 24 54.69 24 72.8V92h16V74c0-9.71 7.2-18 16-18h80l-24-32z" fill="#4285F4"/></g></g></svg>